<svg xmlns="http://www.w3.org/2000/svg" width="256" height="256"><path fill-opacity=".016" d="M0 128.004v128.004l128.25-.254 128.25-.254.254-127.75L257.008 0H0v128.004m.485.496c0 70.4.119 99.053.265 63.672.146-35.38.146-92.98 0-128C.604 29.153.485 58.1.485 128.5" fill="#1976D2" fill-rule="evenodd"/><path fill-opacity=".063" d="M108.334 20.481c-36.031 6.537-67.465 31.887-81.377 65.624C21.59 99.12 19.749 108.159 19.241 124c-.35 10.908-.055 16.683 1.191 23.312 10.398 55.335 61.406 93.892 117.244 88.626 49.306-4.651 90.274-43.308 97.376-91.884 1.721-11.767.726-32.362-2.079-43.028-5.077-19.307-14.699-36.017-28.853-50.108-16.465-16.392-35.856-26.572-58.001-30.45-10.117-1.772-27.983-1.766-37.785.013M121.25 71.78c-1.237.197-2.24.665-2.227 1.04.013.374.902 6.53 1.977 13.68 1.075 7.15 1.964 13.338 1.977 13.75.013.412-4.027.75-8.977.75h-9V72h-4.945l-.278 14.25-.277 14.25-7.912.295c-4.351.162-8.435.094-9.075-.152-.858-.329-.603-4.147.972-14.545L85.621 72h-2.633c-2.633 0-2.633.001-4.938 15.596-3.154 21.33-2.358 26.708 5.061 34.234 3.674 3.727 8.769 6.576 13.639 7.627l3.25.702V183h5v-52.858l5.607-1.63c7.78-2.262 14.645-9.131 16.909-16.919 1.572-5.407 1.535-6.274-.96-22.792-1.426-9.445-2.698-17.219-2.825-17.276-.127-.058-1.244.057-2.481.255m46.25 7.074c-7.98 3.71-12.985 11.207-16.685 24.992-1.58 5.885-2.171 11.858-2.556 25.841-.478 17.373-.404 18.343 1.668 21.696 2.32 3.753 12.483 9.617 16.668 9.617 1.251 0 3.429.439 4.84.975 2.518.958 2.565 1.159 2.565 11V183h5.018l-.259-52.75-.259-52.75-3.5-.253c-1.925-.139-5.3.584-7.5 1.607m1.462 5.01C158.385 89.486 153 106.636 153 134.704v12.56l3.405 3.211c3.189 3.008 8.816 5.239 14.595 5.788l2.5.237.263-36.437c.144-20.041-.098-36.798-.538-37.238-.441-.441-2.359.027-4.263 1.039M81 107.032c0 2.059 3.147 8.497 5.298 10.837 2.871 3.123 11.389 7.11 15.202 7.116 9.856.013 21.5-9.158 21.5-16.935 0-2.001-.497-2.05-21-2.05-13.769 0-21 .355-21 1.032" fill="#1976D2" fill-rule="evenodd"/><path fill-opacity=".307" d="M110.785 20.551c-54.942 8.555-94.557 57.587-91.49 113.24.803 14.57 4.425 28.107 11.16 41.709 6.408 12.943 12.772 21.642 22.645 30.955 41.908 39.535 106.984 39.447 149.012-.199 9.663-9.116 16.063-17.89 22.433-30.756 13.198-26.654 14.923-56.322 4.904-84.354-17.5-48.963-67.304-78.593-118.664-70.595m-30.8 51.091c-.008.472-1.121 8.204-2.474 17.182-2.813 18.682-2.42 23.24 2.602 30.173 3.415 4.715 10.726 9.695 15.564 10.602l3.323.624V183h6v-26.5c0-24.568.128-26.501 1.75-26.51 3.124-.017 11.669-4.659 14.943-8.118 4.19-4.424 7.269-11.387 7.24-16.372-.013-2.2-1.035-10.748-2.271-18.995-2.294-15.3-3.011-16.885-6.6-14.579-1.242.798-1.168 2.781.54 14.543 1.087 7.49 1.887 13.711 1.776 13.825-.111.113-4.067.06-8.79-.117L105 99.853V72h-6v28h-8.5c-4.675 0-8.49-.338-8.477-.75.013-.412.89-6.586 1.949-13.718 1.059-7.132 1.835-13.058 1.725-13.169-.786-.786-5.7-1.407-5.712-.721m85.562 7.605c-11.748 6.729-17.618 24.221-17.895 53.321l-.152 16.069 2.883 3.789c3.321 4.365 10.873 8.251 17.867 9.192l4.75.64V183h6.018l-.259-52.75-.259-52.75-4.5-.259c-3.202-.184-5.64.395-8.453 2.006m2.276 5.531c-8.93 5.89-13.488 20.232-14.535 45.744-.482 11.746-.313 14.529 1.041 17.148 1.84 3.558 8.54 7.234 14.688 8.059l3.983.534v-36.631c0-39.429.157-38.371-5.177-34.854m-86.236 22.081c-.292.473.596 3.122 1.974 5.887 3.627 7.279 8.84 10.598 17.403 11.082 7.337.415 12.477-1.426 16.738-5.994 2.145-2.299 5.298-8.729 5.298-10.802 0-1.275-40.627-1.445-41.413-.173" fill="#1976D2" fill-rule="evenodd"/><path fill-opacity=".135" d="M107 21.429c-21.271 4.427-38.866 13.677-54.419 28.609C2.263 98.345 10.36 180.43 69.217 218.688c45.581 29.628 108.078 19.522 142.356-23.022 7.906-9.813 17.465-28.648 20.383-40.166 6.614-26.102 3.923-51.824-7.95-76-13.688-27.871-38.403-47.979-69.506-56.55-10.152-2.798-37.203-3.664-47.5-1.521M79.511 73.25C78.47 77.696 75 103.177 75.01 106.305 75.04 116.072 87.947 130 96.968 130c1.993 0 2.032.524 2.032 27.063v27.064l3.25-.314 3.25-.313.266-26.547.266-26.547 4.238-1.133c9.106-2.436 16.934-11.053 18.55-20.42.504-2.917.007-9.466-1.506-19.853-1.242-8.525-2.27-16.062-2.286-16.75-.031-1.393-5.602-1.749-6.429-.411-.285.462.357 6.425 1.428 13.25 1.071 6.826 1.953 12.974 1.96 13.661.009.897-2.241 1.25-7.96 1.25h-7.972l-.278-14.25-.277-14.25-3.25-.313-3.25-.314V100H82.05l.49-2.75c1.454-8.164 3.452-22.043 3.456-24 .003-1.831-.551-2.25-2.977-2.25-2.269 0-3.107.538-3.508 2.25m89.104 4.199c-8.46 3.066-15.185 12.669-18.662 26.646-2.173 8.739-3.912 37.949-2.575 43.274 1.665 6.636 10.823 13.112 20.493 14.492l4.629.66.284 10.74.284 10.739h5.949l-.258-53.75-.259-53.75-3-.23c-1.65-.126-4.748.405-6.885 1.179m-.115 7.412c-4.217 2.604-6.038 4.888-8.908 11.166-3.574 7.82-5.601 21.14-5.69 37.392l-.076 14.036 3.046 2.722c2.724 2.433 11.344 5.823 14.81 5.823 1.067 0 1.318-6.955 1.318-36.5 0-20.075-.338-36.498-.75-36.496-.412.002-2.1.837-3.75 1.857M82 108.04c0 .572.856 2.709 1.903 4.75 8.356 16.295 31.353 14.449 38.006-3.051L122.95 107h-20.475C88.969 107 82 107.354 82 108.04" fill="#1976D2" fill-rule="evenodd"/></svg>